<?xml version="1.0" encoding="utf-8"?>
<!-- Generator: Adobe Illustrator 22.1.0, SVG Export Plug-In . SVG Version: 6.00 Build 0)  -->
<svg version="1.1" id="图层_1" xmlns="http://www.w3.org/2000/svg" xmlns:xlink="http://www.w3.org/1999/xlink" x="0px" y="0px"
	 viewBox="0 0 112.3 29.5" style="enable-background:new 0 0 112.3 29.5;" xml:space="preserve">
<style type="text/css">
	.st0{fill:#2E2EFF;}
	.st1{enable-background:new    ;}
	.st2{fill:#FFFFFF;}
</style>
<title>资源 2</title>
<g id="图层_2_1_">
	<g id="默认">
		<g>
			<path class="st0" d="M7.7,15.3c-4.2,0.2-7.8-3.1-7.9-7.4S2.9,0.2,7.1,0c0.2,0,0.4,0,0.6,0v4.4c-1.8,0-3.3,1.5-3.3,3.3
				s1.5,3.3,3.3,3.3V15.3z"/>
		</g>
		<g>
			
				<rect x="-2.3" y="11.1" transform="matrix(0.7071 -0.7071 0.7071 0.7071 -5.4137 13.5564)" class="st0" width="31.9" height="4.4"/>
		</g>
		<g>
			<polygon class="st0" points="27.1,26 16.6,26 16.6,15.3 21,15.3 21,21.6 27.1,21.6 			"/>
		</g>
		<g class="st1">
			<path class="st2" d="M50.7,8.6l-2.2,2.1c-1.5-1.6-3.2-2.4-5.1-2.4c-1.6,0-2.9,0.5-4,1.6c-1.1,1.1-1.6,2.4-1.6,4
				c0,1.1,0.2,2.1,0.7,3s1.2,1.5,2.1,2c0.9,0.5,1.9,0.7,3,0.7c0.9,0,1.8-0.2,2.5-0.5s1.6-1,2.5-1.9l2.2,2.3c-1.2,1.2-2.4,2-3.5,2.5
				s-2.4,0.7-3.8,0.7c-2.6,0-4.7-0.8-6.4-2.5c-1.7-1.7-2.5-3.8-2.5-6.3c0-1.7,0.4-3.2,1.1-4.5s1.8-2.3,3.2-3.1
				c1.4-0.8,2.9-1.2,4.5-1.2c1.4,0,2.7,0.3,4,0.9C48.7,6.7,49.8,7.5,50.7,8.6z"/>
			<path class="st2" d="M53.5,5.6h3.2v13.7h4.6v3h-7.8V5.6z"/>
			<path class="st2" d="M75.9,17.1h-10c0.1,0.9,0.5,1.6,1.2,2.1c0.6,0.5,1.4,0.8,2.4,0.8c1.2,0,2.2-0.4,3-1.2L75,20
				c-0.7,0.9-1.4,1.6-2.3,2.1c-0.9,0.4-2,0.7-3.2,0.7c-1.9,0-3.5-0.6-4.7-1.8c-1.2-1.2-1.8-2.8-1.8-4.6c0-1.9,0.6-3.5,1.8-4.7
				c1.2-1.2,2.7-1.9,4.6-1.9c2,0,3.5,0.6,4.8,1.9c1.2,1.2,1.8,2.9,1.8,4.9L75.9,17.1z M72.8,14.6c-0.2-0.7-0.6-1.3-1.2-1.7
				c-0.6-0.4-1.3-0.6-2.1-0.6c-0.9,0-1.6,0.2-2.3,0.7c-0.4,0.3-0.8,0.8-1.1,1.6H72.8z"/>
			<path class="st2" d="M77.1,10h3.2l3.1,7.3l3.1-7.3h3.2l-5.3,12.4h-2L77.1,10z"/>
			<path class="st2" d="M103.9,17.1h-10c0.1,0.9,0.5,1.6,1.2,2.1c0.6,0.5,1.4,0.8,2.4,0.8c1.2,0,2.2-0.4,3-1.2L103,20
				c-0.7,0.9-1.4,1.6-2.3,2.1c-0.9,0.4-2,0.7-3.2,0.7c-1.9,0-3.5-0.6-4.7-1.8c-1.2-1.2-1.8-2.8-1.8-4.6c0-1.9,0.6-3.5,1.8-4.7
				c1.2-1.2,2.7-1.9,4.6-1.9c2,0,3.5,0.6,4.8,1.9c1.2,1.2,1.8,2.9,1.8,4.9L103.9,17.1z M100.7,14.6c-0.2-0.7-0.6-1.3-1.2-1.7
				c-0.6-0.4-1.3-0.6-2.1-0.6c-0.9,0-1.6,0.2-2.3,0.7c-0.4,0.3-0.8,0.8-1.1,1.6H100.7z"/>
			<path class="st2" d="M105.6,10h2.7v1.6c0.3-0.6,0.7-1.1,1.2-1.4c0.5-0.3,1-0.5,1.6-0.5c0.4,0,0.8,0.1,1.3,0.3l-1,2.7
				c-0.4-0.2-0.7-0.3-0.9-0.3c-0.5,0-0.9,0.3-1.2,0.9c-0.3,0.6-0.5,1.8-0.5,3.5l0,0.6v5h-3.1V10z"/>
		</g>
	</g>
</g>
</svg>
